<?xml version="1.0" encoding="utf-8"?>
<svg version="1.1" x="0px" y="0px" viewBox="0 0 100 125" enable-background="new 0 0 100 100" xmlns="http://www.w3.org/2000/svg">
  <path d="M 31.868 53.129 C 31.071 53.17 30.445 53.828 30.445 54.627 L 30.445 59.553 C 30.445 60.352 31.071 61.01 31.868 61.051 L 35.511 61.237 C 35.646 61.616 35.802 61.989 35.975 62.355 L 33.529 65.067 C 32.994 65.661 33.018 66.569 33.583 67.133 L 37.067 70.613 C 37.632 71.176 38.54 71.2 39.132 70.665 L 41.841 68.221 C 42.207 68.395 42.581 68.55 42.96 68.686 L 43.147 72.329 C 43.188 73.126 43.846 73.752 44.645 73.752 L 49.571 73.752 C 50.37 73.752 51.028 73.126 51.069 72.328 L 51.253 68.686 C 51.632 68.55 52.005 68.395 52.372 68.221 L 55.081 70.665 C 55.673 71.2 56.579 71.177 57.145 70.613 L 60.629 67.133 C 61.193 66.568 61.217 65.659 60.682 65.066 L 58.237 62.358 C 58.411 61.992 58.567 61.618 58.702 61.237 L 62.343 61.051 C 63.142 61.01 63.767 60.352 63.767 59.553 L 63.767 54.627 C 63.767 53.828 63.142 53.169 62.343 53.129 L 58.702 52.943 C 58.565 52.562 58.409 52.188 58.235 51.821 L 60.682 49.113 C 61.217 48.519 61.194 47.611 60.629 47.046 L 57.145 43.567 C 56.579 43.003 55.674 42.982 55.079 43.515 L 52.372 45.961 C 52.007 45.788 51.634 45.632 51.253 45.495 L 51.069 41.85 C 51.028 41.052 50.37 40.426 49.571 40.426 L 44.645 40.426 C 43.847 40.426 43.188 41.051 43.147 41.848 L 42.957 45.495 C 42.578 45.632 42.205 45.787 41.841 45.961 L 39.133 43.515 C 38.541 42.981 37.633 43.003 37.068 43.567 L 33.584 47.046 C 33.019 47.61 32.995 48.519 33.529 49.111 L 35.976 51.827 C 35.803 52.193 35.648 52.564 35.513 52.941 L 31.868 53.129 Z M 38.904 50.597 L 36.711 48.162 L 38.179 46.697 L 40.61 48.893 C 41.097 49.332 41.816 49.405 42.381 49.07 C 43.129 48.627 43.937 48.289 44.781 48.068 C 45.413 47.902 45.864 47.347 45.899 46.695 L 46.069 43.427 L 48.146 43.427 L 48.31 46.692 C 48.343 47.345 48.796 47.902 49.429 48.067 C 50.277 48.289 51.085 48.626 51.832 49.069 C 52.397 49.403 53.114 49.332 53.603 48.892 L 56.035 46.696 L 57.502 48.16 L 55.307 50.589 C 54.866 51.076 54.795 51.793 55.129 52.359 C 55.574 53.112 55.91 53.92 56.125 54.762 C 56.289 55.398 56.848 55.853 57.502 55.886 L 60.768 56.052 L 60.768 58.126 L 57.502 58.293 C 56.846 58.326 56.287 58.783 56.125 59.421 C 55.912 60.256 55.578 61.062 55.129 61.816 C 54.795 62.381 54.865 63.099 55.307 63.587 L 57.502 66.018 L 56.033 67.484 L 53.603 65.29 C 53.117 64.849 52.398 64.777 51.834 65.112 C 51.075 65.56 50.269 65.895 49.437 66.108 C 48.8 66.271 48.343 66.829 48.31 67.485 L 48.146 70.751 L 46.071 70.751 L 45.904 67.484 C 45.87 66.829 45.414 66.271 44.778 66.108 C 43.945 65.894 43.137 65.559 42.38 65.112 C 41.814 64.777 41.099 64.849 40.612 65.29 L 38.181 67.484 L 36.713 66.017 L 38.905 63.586 C 39.343 63.101 39.416 62.387 39.086 61.823 C 38.638 61.058 38.303 60.249 38.089 59.418 C 37.926 58.782 37.368 58.326 36.713 58.293 L 33.447 58.126 L 33.447 56.051 L 36.714 55.883 C 37.368 55.849 37.925 55.395 38.089 54.76 C 38.303 53.932 38.639 53.123 39.087 52.358 C 39.415 51.794 39.342 51.082 38.904 50.597 Z M 47.107 63.82 C 50.817 63.82 53.836 60.8 53.836 57.09 C 53.836 53.38 50.817 50.362 47.107 50.362 C 43.397 50.362 40.378 53.38 40.378 57.09 C 40.378 60.801 43.397 63.82 47.107 63.82 Z M 47.107 53.362 C 49.164 53.362 50.836 55.034 50.836 57.09 C 50.836 59.147 49.164 60.82 47.107 60.82 C 45.05 60.82 43.378 59.146 43.378 57.09 C 43.378 55.034 45.051 53.362 47.107 53.362 Z M 71.504 31.613 L 71.504 16.006 C 71.504 11.87 68.139 8.506 64.004 8.506 L 28.205 8.506 C 24.069 8.506 20.705 11.87 20.705 16.006 L 20.705 25.006 C 20.705 25.835 21.376 26.506 22.205 26.506 L 68.504 26.506 L 68.504 81.172 C 68.504 82 69.176 82.672 70.004 82.672 C 70.832 82.672 71.504 82 71.504 81.172 L 71.504 43.075 C 72.645 42.844 73.506 41.833 73.506 40.625 L 73.506 34.062 C 73.506 32.855 72.645 31.844 71.504 31.613 Z M 68.504 23.506 L 23.705 23.506 L 23.705 16.006 C 23.705 13.525 25.724 11.506 28.205 11.506 L 64.004 11.506 C 66.484 11.506 68.504 13.525 68.504 16.006 L 68.504 23.506 Z M 46.105 100.822 C 48.404 100.822 50.274 98.951 50.274 96.652 C 50.274 94.353 48.404 92.482 46.105 92.482 C 43.806 92.482 41.935 94.353 41.935 96.652 C 41.935 98.951 43.805 100.822 46.105 100.822 Z M 46.105 95.483 C 46.75 95.483 47.275 96.007 47.275 96.653 C 47.275 97.299 46.75 97.823 46.105 97.823 C 45.46 97.823 44.935 97.299 44.935 96.653 C 44.935 96.007 45.46 95.483 46.105 95.483 Z M 70.004 87.672 L 23.705 87.672 L 23.705 33.006 C 23.705 32.177 23.034 31.506 22.205 31.506 C 21.376 31.506 20.705 32.177 20.705 33.006 L 20.705 98.172 C 20.705 102.308 24.069 105.672 28.205 105.672 L 64.004 105.672 C 68.139 105.672 71.504 102.308 71.504 98.172 L 71.504 89.172 C 71.504 88.344 70.833 87.672 70.004 87.672 Z M 68.504 98.172 C 68.504 100.653 66.484 102.672 64.004 102.672 L 28.205 102.672 C 25.724 102.672 23.705 100.653 23.705 98.172 L 23.705 90.672 L 68.504 90.672 L 68.504 98.172 Z" style="fill: rgb(177, 177, 177);"/>
</svg>